<svg width="25" height="24" viewBox="0 0 25 24" fill="none" xmlns="http://www.w3.org/2000/svg">
<path d="M10.9693 7.86983L9.10932 9.73982C9.86983 10.8431 10.7301 11.8741 11.6793 12.8198C12.6285 13.7692 13.6629 14.6295 14.7693 15.3898L16.6293 13.5298C16.8167 13.3436 17.0701 13.239 17.3343 13.239C17.5985 13.239 17.852 13.3436 18.0393 13.5298L21.5793 17.0698C21.7656 17.2572 21.8701 17.5106 21.8701 17.7748C21.8701 18.039 21.7656 18.2925 21.5793 18.4798L20.8193 19.2398L19.2693 20.7898C18.9929 21.0648 18.642 21.2529 18.2601 21.3311C17.8781 21.4092 17.4816 21.374 17.1193 21.2298C16.2659 20.8657 15.4315 20.4585 14.6193 20.0098C12.504 18.8298 10.5622 17.3625 8.84932 15.6498C7.13507 13.9383 5.66763 11.9963 4.48932 9.87982C4.03872 9.06865 3.63148 8.23415 3.26933 7.37982C3.12636 7.01663 3.09278 6.61955 3.17274 6.23752C3.25271 5.85548 3.4427 5.50519 3.71932 5.22983L5.25932 3.68982L6.01933 2.91982C6.11229 2.82609 6.22288 2.7517 6.34474 2.70093C6.4666 2.65016 6.59731 2.62402 6.72932 2.62402C6.86134 2.62402 6.99204 2.65016 7.1139 2.70093C7.23576 2.7517 7.34636 2.82609 7.43932 2.91982L10.9693 6.45982C11.1556 6.64719 11.2601 6.90064 11.2601 7.16483C11.2601 7.42901 11.1556 7.68246 10.9693 7.86983Z" fill="#B95F5F"/>
</svg>
